<svg id="svg4823" xmlns:rdf="http://www.w3.org/1999/02/22-rdf-syntax-ns#" xmlns="http://www.w3.org/2000/svg" viewBox="0 0 102.18745 254.98672"><path id="path5373" d="m39.911 253.51c-2.978-2.978-0.56323-6.9643 4.2188-6.9643 5.3447 0 6.4955-2.4916 6.4955-14.062v-10.312h-22.572-22.572l-2.7404-2.7404c-1.5078-1.5-2.741-3.13-2.741-3.61 0-0.4777 1.2869-2.725 2.8598-4.994 22.51-32.473 26.009-39.826 31.808-66.84 1.5378-7.165 3.4004-13.95 4.139-15.077 0.86268-1.3166 1.042-2.525 0.50144-3.379-2.0039-3.1659 0.4642-6.4857 4.8218-6.4857 5.3447 0 6.4955-2.4916 6.4955-14.062v-10.313h-22.572-22.572l-2.7404-2.7404c-1.5088-1.5-2.742-3.124-2.742-3.602 0-0.4777 1.2869-2.725 2.8598-4.994 22.277-32.137 26.72-41.473 31.834-66.904 2.2929-11.401 3.3235-14.654 4.974-15.704 0.61227-0.38932 10.026-0.71431 20.92-0.72221 23.75-0.0172 23.983 0.0785 18.89 7.7493-6.078 9.154-18.825 24.468-41.702 50.098-12.527 14.034-22.776 25.952-22.776 26.484 0 0.6306 6.1984 0.96715 17.812 0.96715h17.812v-14.124c0-8.8593 0.40305-14.887 1.0813-16.172 1.2977-2.4577 26.755-30.764 28.709-31.922 0.88666-0.52563 1.6564-0.36024 2.1816 0.46875 0.44633 0.70451 0.81796 14.886 0.82586 31.515l0.0143 30.234h7.9018c8.3539 0 10.848 1.0778 10.848 4.6875 0 3.62-2.49 4.6875-10.934 4.6875h-7.9871l0.31971 9.9266c0.30714 9.5363 0.42314 10.016 2.9501 12.188 1.4467 1.2435 3.4205 2.2609 4.3862 2.2609 2.0468 0 4.7022 2.3824 4.7022 4.2188 0 2.7036-2.886 4.2188-8.0357 4.2188-4.3702 0-5.0893 0.25101-5.0893 1.7765 0 4.0589-13.852 21.419-44.754 56.084-12.51 14.034-22.746 25.952-22.746 26.484 0 0.6306 6.1984 0.96715 17.812 0.96715h17.812v-14.124c0-8.8593 0.40305-14.887 1.0813-16.172 1.2977-2.4577 26.755-30.764 28.709-31.922 0.88666-0.52563 1.6564-0.36024 2.1816 0.46875 0.44633 0.70451 0.81796 14.886 0.82586 31.515l0.0143 30.234h7.9018c8.3539 0 10.848 1.0778 10.848 4.6875 0 3.62-2.49 4.6875-10.934 4.6875h-7.9871l0.31971 9.9266c0.30714 9.5363 0.42314 10.016 2.9501 12.188 1.4467 1.2435 3.4205 2.2609 4.3862 2.2609 2.0468 0 4.7022 2.3824 4.7022 4.2188 0 0.69978-0.66294 1.9353-1.4732 2.7455-1.2675 1.2675-5.0548 1.4732-27.121 1.4732s-25.853-0.20573-27.121-1.4732z"/></svg>
