<svg xmlns="http://www.w3.org/2000/svg" viewBox="0 0 670 670">
  <defs><clipPath id="_clipPath_cE97ozO3zP81TH4qYsEb8908B9gvhlVX"><rect width="670" height="670"/></clipPath></defs>
  <g clip-path="url(#_clipPath_cE97ozO3zP81TH4qYsEb8908B9gvhlVX)">
    <path fill="rgb(255,255,255)" d=" M 0 335 C 0 150.108 150.108 0 335 0 C 519.892 0 670 150.108 670 335 C 670 519.892 519.892 670 335 670 C 150.108 670 0 519.892 0 335 Z "/>
    <path fill="rgb(33,150,243)" d=" M 334.148 206.4 L 334.148 437.592 Q 334.148 437.597 334.049 440.599 C 332.743 460.591 318.555 482.628 295.402 497.182 C 262.383 517.936 223.555 515.662 208.749 492.106 C 193.942 468.55 208.728 432.575 241.746 411.821 C 266.926 395.993 295.484 393.558 314.192 403.741 Q 314.192 43.015 314.192 37.384 C 314.192 31.752 330.214 31.794 330.214 37.384 C 330.214 42.973 362.861 88.828 429.942 120.313 Q 501.218 153.766 496.502 235.261 C 485.073 213.309 489.484 182.403 422.117 158.121 Q 334.148 122.433 334.148 123.211 C 334.148 123.989 334.148 135.762 334.148 142.843 C 334.148 149.923 364.45 172.333 428.934 200.399 Q 501.128 231.82 498.722 313.416 C 486.675 291.796 490.21 260.777 422.182 238.414 Q 362.118 218.668 334.148 206.4 Z "/>
    <path fill="rgb(81,45,168)" d=" M 65.809 534.345 C 126.876 616.631 224.755 670 335 670 C 519.892 670 670 519.892 670 335 C 670 224.755 616.631 126.876 534.345 65.809 C 528.5 61.875 528.498 61 524.5 61 C 517.601 61 512 66.601 512 73.5 C 512 78.685 514.25 79.75 519.669 85.02 C 578.393 141.028 615 220.023 615 307.5 C 615 477.214 477.214 615 307.5 615 C 220.023 615 141.028 578.393 85.02 519.67 C 79.875 514.625 78.685 512 73.5 512 C 66.601 512 61 517.601 61 524.5 C 61 528.498 62 528.75 65.809 534.345 Z "/>
    <path fill="rgb(178,255,89)" d=" M 108.788 471.132 C 156.897 535.956 234.004 578 320.854 578 C 466.51 578 584.764 459.746 584.764 314.09 C 584.764 227.24 542.72 150.133 477.896 102.024 C 473.292 98.925 473.29 98.236 470.141 98.236 C 464.706 98.236 460.293 102.648 460.293 108.083 C 460.293 112.168 462.066 113.007 466.335 117.159 C 512.597 161.281 541.436 223.513 541.436 292.426 C 541.436 426.125 432.889 534.672 299.19 534.672 C 230.277 534.672 168.045 505.833 123.923 459.571 C 119.87 455.597 118.932 453.529 114.847 453.529 C 109.412 453.529 105 457.942 105 463.377 C 105 466.526 105.788 466.725 108.788 471.132 Z "/>
  </g>
</svg>
