<svg xmlns="http://www.w3.org/2000/svg" viewBox="0 0 670 670"><defs><clipPath id="_clipPath_eiXlUViHP3wIRqJA41HsDliTveLrVFSW"><rect width="670" height="670"/></clipPath></defs><g clip-path="url(#_clipPath_eiXlUViHP3wIRqJA41HsDliTveLrVFSW)"><path d=" M 0 335 C 0 150.108 150.108 0 335 0 C 519.892 0 670 150.108 670 335 C 670 519.892 519.892 670 335 670 C 150.108 670 0 519.892 0 335 Z " fill="rgb(255,255,255)"/><path d=" M 258.137 388.875 C 219.554 403.805 195.241 420.631 197.043 433.689 C 199.947 454.739 269.626 458.074 352.548 441.13 C 435.469 424.187 500.433 393.341 497.529 372.291 C 495.728 359.233 468.233 352.992 427.759 354.216 C 447.873 355.517 460.712 360.161 461.783 367.928 C 464.027 384.189 413.842 408.018 349.785 421.106 C 285.728 434.195 231.901 431.619 229.658 415.358 C 228.586 407.591 239.475 398.098 258.137 388.875 Z " fill="rgb(189,189,189)"/><path d=" M 186.414 408.193 C 116.791 435.134 72.919 465.498 76.169 489.06 C 81.409 527.046 207.147 533.063 356.781 502.489 C 506.414 471.914 623.643 416.252 618.403 378.266 C 615.152 354.704 565.538 343.442 492.502 345.65 C 528.798 347.997 551.965 356.378 553.899 370.394 C 557.947 399.738 467.388 442.736 351.796 466.355 C 236.204 489.974 139.072 485.326 135.024 455.982 C 133.09 441.967 152.739 424.837 186.414 408.193 Z " fill="rgb(178,255,89)"/><path d=" M 378.503 145.126 L 378.503 141.454 Q 398.052 150.424 419.503 167 C 441.503 184 442.836 203.333 443.503 217 C 447.003 197.5 441.503 179.667 423.503 162 C 406.465 145.277 385.245 130.944 378.503 107.126 L 378.503 102 L 365.583 102 L 365.583 339.177 C 353.472 332.584 334.984 334.161 318.683 344.407 C 297.307 357.843 287.735 381.133 297.32 396.383 C 306.906 411.633 332.043 413.106 353.419 399.669 C 368.408 390.247 377.593 375.981 378.439 363.038 Q 378.503 361.094 378.503 361.091 L 378.503 179.454 Q 398.052 188.424 419.503 205 C 441.503 222 442.836 241.333 443.503 255 C 447.003 235.5 441.503 217.667 423.503 200 C 406.465 183.277 385.245 168.944 378.503 145.126 Z " fill="rgb(33,150,243)"/></g></svg>
