<svg xmlns="http://www.w3.org/2000/svg" viewBox="0 0 292 292"><defs><clipPath id="_clipPath_iAfryFTV6KKWMRSqGmByxs8k5QMq7ZY4"><rect width="292" height="292"/></clipPath></defs><g clip-path="url(#_clipPath_iAfryFTV6KKWMRSqGmByxs8k5QMq7ZY4)"><path d=" M 0 146 C 0 65.42 65.42 0 146 0 C 226.58 0 292 65.42 292 146 C 292 226.58 226.58 292 146 292 C 65.42 292 0 226.58 0 146 Z " fill="rgb(255,255,255)"/><path d=" M 149.25 180 C 114.25 175 65.25 155 50 140 C 60.25 182.5 80.75 217 140.25 219 C 199.75 221 215.25 232 229 249 C 215.75 202.5 184.25 185 149.25 180 Z " fill="rgb(0,151,167)"/><path d=" M 73 77 C 74.5 120 97 156.5 149 164 C 201 171.5 213.5 193.5 225 209 Q 216 137 157 120 Q 98 103 73 77 Z " fill="rgb(0,188,212)"/><path d=" M 123.955 25 C 120.455 66.5 137.455 92.5 164.955 105 C 192.455 117.5 210.955 132.5 220.955 155 C 222.455 132.5 213.955 95.5 186.955 74 C 159.955 52.5 139.955 48 123.955 25 Z " fill="rgb(189,189,189)"/></g></svg>
