<svg xmlns="http://www.w3.org/2000/svg" viewBox="0 0 670 670">
  <defs><clipPath id="_clipPath_tiIj49sQneK58iUGi9cNQdAo6fdwYbFP"><rect width="670" height="670"/></clipPath></defs>
  <g clip-path="url(#_clipPath_tiIj49sQneK58iUGi9cNQdAo6fdwYbFP)">
    <path fill="rgb(255,255,255)" d=" M 0 335 C 0 150.108 150.108 0 335 0 C 519.892 0 670 150.108 670 335 C 670 519.892 519.892 670 335 670 C 150.108 670 0 519.892 0 335 Z "/>
    <path fill="rgb(33,150,243)" d=" M 341.941 262.649 L 341.941 482.899 Q 341.941 482.904 341.847 485.764 C 340.603 504.81 327.086 525.804 305.029 539.669 C 273.573 559.441 236.582 557.274 222.476 534.833 C 208.371 512.392 222.457 478.12 253.912 458.348 C 277.9 443.27 305.107 440.95 322.929 450.651 Q 322.929 106.998 322.929 101.633 C 322.929 96.268 338.193 96.307 338.193 101.633 C 338.193 106.958 369.295 150.642 433.201 180.637 Q 501.103 212.507 496.611 290.145 C 485.722 269.231 489.925 239.788 425.746 216.656 Q 341.941 182.657 341.941 183.398 C 341.941 184.139 341.941 195.355 341.941 202.101 C 341.941 208.846 370.809 230.195 432.24 256.932 Q 501.017 286.867 498.725 364.6 C 487.249 344.004 490.616 314.453 425.808 293.148 Q 368.587 274.337 341.941 262.649 Z "/>
    <path fill="rgb(81,45,168)" fill-rule="evenodd" d=" M 0 335 C 0 150.108 150.108 0 335 0 C 519.892 0 670 150.108 670 335 C 670 519.892 519.892 670 335 670 C 150.108 670 0 519.892 0 335 Z  M 47.5 335 C 47.5 176.324 176.324 47.5 335 47.5 C 493.676 47.5 622.5 176.324 622.5 335 C 622.5 493.676 493.676 622.5 335 622.5 C 176.324 622.5 47.5 493.676 47.5 335 Z "/>
    <path fill="rgb(178,255,89)" fill-rule="evenodd" d=" M 42.618 335 C 42.618 173.63 173.63 42.618 335 42.618 C 496.37 42.618 627.382 173.63 627.382 335 C 627.382 496.37 496.37 627.382 335 627.382 C 173.63 627.382 42.618 496.37 42.618 335 Z  M 84.075 335 C 84.075 196.511 196.511 84.075 335 84.075 C 473.489 84.075 585.925 196.511 585.925 335 C 585.925 473.489 473.489 585.925 335 585.925 C 196.511 585.925 84.075 473.489 84.075 335 Z "/>
  </g>
</svg>
