<svg xmlns="http://www.w3.org/2000/svg" viewBox="0 0 364.4 1012.6"><path d="M269.6 2v735a136.2 186.7 71.6 0 0-45.6-6.5 136.2 186.7 71.6 0 0-90 15A136.2 186.7 71.6 0 0 7.7 936a136.2 186.7 71.6 0 0 225 63.4 136.2 186.7 71.6 0 0 132-166.3V2h-95.2zm-60.3 779.7a87 119.4 71.6 0 1 60.3 18 87 119.4 71.6 0 1 7.3 6 87 119.4 71.6 0 1 .5.5 87 119.4 71.6 0 1 5.7 5.8 87 119.4 71.6 0 1 1.2 1.5 87 119.4 71.6 0 1 4.2 5.5 87 119.4 71.6 0 1 1.6 2.6 87 119.4 71.6 0 1 3 5 87 119.4 71.6 0 1 2.2 5 87 119.4 71.6 0 1 3.2 12 87 119.4 71.6 0 1-83.8 110A87 119.4 71.6 0 1 71 913a87 119.4 71.6 0 1 80.7-121.7 87 119.4 71.6 0 1 57.6-9.6z"/></svg>
