<svg id="svg2" xmlns:rdf="http://www.w3.org/1999/02/22-rdf-syntax-ns#" xmlns="http://www.w3.org/2000/svg" height="300.2" width="128.4" version="1.1" xmlns:cc="http://creativecommons.org/ns#" xmlns:dc="http://purl.org/dc/elements/1.1/" viewBox="0 0 128.36443 300.17594">
<g transform="translate(0 -752.2)">
<path id="svg-note-circle" d="m128.3 994.2a43.07 66.2 71.01 0 1 -64.16 56.8 43.07 66.2 71.01 0 1 -64.14 -33 43.07 66.2 71.01 0 1 64.14 -56.57 43.07 66.2 71.01 0 1 64.14 32.32z"/>
<path id="svg-whole-note" d="m83.1 960.2a43.07 66.2 71.01 0 0 -18.96 1.6 43.07 66.2 71.01 0 0 -64.14 56.2 43.07 66.2 71.01 0 0 64.14 32.32 43.07 66.2 71.01 0 0 64.14 -56.57 43.07 66.2 71.01 0 0 -45.19 -33.92zm-10.52 11.68a32.52 43.87 67.86 0 1 34.01 27.23 32.52 43.87 67.86 0 1 -42.44 40.75 32.52 43.87 67.86 0 1 -42.45 -26.49 32.52 43.87 67.86 0 1 42.45 -40.75 32.52 43.87 67.86 0 1 8.432 -0.7461z"/>
<path id="svg-half-note" d="m102.5 752.2v211.3c-5.862-1.951-12.44-3.048-19.44-3.242-6.14-0.1556-12.53 0.383-18.96 1.598-35.38 6.6-64.1 32-64.1 56.1 0.00055 24.55 28.72 39.02 64.14 32.32 35.43-6.695 64.14-32.02 64.14-56.57 0.1112-83.82 0.0689-169.8 0.0605-242zm-29.92 219.7c13.17-0.083 24.28 4.99 29.97 13.68v0.008c1.153 1.761 2.066 3.646 2.727 5.629h0.0137c0.8527 2.517 1.291 5.176 1.305 7.918 0.00002 18.57-19 36.81-42.44 40.75-23.44 3.939-42.45-7.92-42.45-26.49 0.00021-18.57 19-36.81 42.45-40.75 2.832-0.4756 5.656-0.7255 8.432-0.7461z"/>
<path id="svg-quarter-note" d="m102.5 752.2v211.3c-5.862-1.951-12.44-3.048-19.44-3.242-6.14-0.1556-12.53 0.383-18.96 1.598-35.38 6.6-64.1 32-64.1 56.1 0.00055 24.55 28.72 39.02 64.14 32.32 35.43-6.695 64.14-32.02 64.14-56.57 0.1112-83.82 0.0689-169.8 0.0605-242h-25.8z"/>
</g>
</svg>
