<svg id="svg2" xmlns:rdf="http://www.w3.org/1999/02/22-rdf-syntax-ns#" xmlns="http://www.w3.org/2000/svg" viewBox="0 0 165.12244 466.24549"><g id="layer1" transform="translate(-180.35 -240.53)"><path id="path4136" d="m307.2 241.56v348.02a58.571 82.857 75 0 0 -0.49414 -0.16406c0.0669-2.6279 0.11329-6.6111 0.11329-11.311v-14.479l-3.0449 2.9668c-7.5954 7.3996-16.872 12.337-30.268 16.109l-9.0098 2.5371 1.0918 0.12304a58.571 82.857 75 0 0 -17.895 3.2734 58.571 82.857 75 0 0 -64.873 78.02 58.571 82.857 75 0 0 95.191 35.131 58.571 82.857 75 0 0 66.115 -69.777h0.31055v-390.45h-37.238z" stroke="#000" stroke-width="2.069"/></g></svg>
