<svg id="svg4189" xmlns:rdf="http://www.w3.org/1999/02/22-rdf-syntax-ns#" xmlns="http://www.w3.org/2000/svg" viewBox="0 0 75.398315 222.07143"><path id="path4739" d="m30.463 220.75c-8.8025-3.2752-15.451-11.857-14.003-18.073 2.2298-9.5673 6.5117-13.928 13.677-13.928 4.1959 0 9.3424 4.7527 10.244 9.46 0.87512 4.5698-3.7884 11.03-8.8859 12.309-2.7199 0.68265-2.9691 1.1418-1.8027 3.3213 3.3364 6.234 13.713 5.9739 20.8-0.52155 5.7213-5.2432 6.429-11.166 3.5836-29.99l-2.1424-14.173-6.2686 0.99094c-21.762 3.44-40.218-11.82-44.895-37.12-3.1804-17.21 3.3-32.42 23.02-54.038 5.2093-5.7108 9.2312-11.055 8.9375-11.875-0.29369-0.82046-1.3727-8.0071-2.3978-15.97-2.1739-16.887-1.1897-26.277 3.9579-37.761 3.183-7.1034 8.917-13.386 12.216-13.386 2.7146 0 7.7476 6.9377 10.174 14.024 2.8592 8.3513 3.1935 32.329 0.58016 41.601-2.5294 8.9745-8.2443 19.932-13.333 25.565l-4.3962 4.866 2.141 11.168 2.141 11.168h6.7498c9.3494 0 15.894 4.6007 20.957 14.732 5.0931 10.192 5.1717 19.581 0.2479 29.624-3.043 6.2068-10.254 13.503-14.863 15.04-0.61027 0.20342-0.1627 5.706 0.99458 12.228 3.934 22.17 2.2835 33.011-5.915 38.849-4.6762 3.3297-15.166 4.2489-21.518 1.8855zm19.777-55.704c0.40886-0.66154-1.027-10.487-3.1908-21.835l-3.9342-20.632-3.5986 1.8609c-8.888 4.5962-10.666 16.569-3.8883 26.184 4.7893 6.7946 3.7484 7.1502-3.2916 1.1242-6.6565-5.6977-8.9422-10.133-8.9422-17.353 0-9.4771 4.8117-17.441 13.716-22.701 2.3026-1.3602 3.5658-2.9846 3.2293-4.1527-0.30396-1.0552-1.2204-5.4343-2.0365-9.7311-0.81614-4.2969-1.8734-7.8125-2.3495-7.8125-2.2163 0-21.587 21.56-23.732 26.415-10.93 24.735 3.5465 49.835 28.742 49.835 4.6934 0 8.868-0.54126 9.2769-1.2028zm14.526-13.543c2.9397-8.9074-1.1863-22.403-8.1473-26.647-3.8479-2.3465-9.4743-3.1894-9.4759-1.4196-0.00047 0.51562 1.7732 9.8237 3.9414 20.685l3.9422 19.747 4.16-4.0321c2.288-2.2176 4.7988-5.9675 5.5795-8.3329zm-14.851-104.64c3.4068-6.3277 4.0431-8.8342 4.0708-16.036 0.0359-9.3155-1.962-12.478-7.044-11.149-3.534 0.92417-9.359 10.478-10.971 17.994-1.4777 6.8904-1.7312 20.052-0.47658 24.743 0.80063 2.9932 0.90939 2.9447 5.5996-2.5 2.631-3.053 6.601-8.927 8.821-13.052z"/></svg>
