<?xml version="1.0" standalone="no"?><!-- Generator: Gravit.io --><svg xmlns="http://www.w3.org/2000/svg" xmlns:xlink="http://www.w3.org/1999/xlink" style="isolation:isolate" viewBox="0 0 276.026 779.157" width="276.026" height="779.157"><defs><clipPath id="_clipPath_tut3wtcXnKD8uSPJd68MLKMWf4svU1Tl"><rect width="276.026" height="779.157"/></clipPath></defs><g clip-path="url(#_clipPath_tut3wtcXnKD8uSPJd68MLKMWf4svU1Tl)"><path d=" M 156.92 429.791 C 145.211 433.046 134.654 440.323 124.864 451.429 C 115.075 462.726 110.276 475.173 110.276 488.577 C 110.276 497.002 113.155 506.577 118.722 516.725 C 124.288 527.066 132.734 534.534 143.675 539.321 C 147.322 540.087 149.05 542.002 149.05 544.682 C 149.05 545.64 147.706 546.597 144.443 547.363 C 126.976 542.959 112.579 533.576 101.446 519.598 C 90.313 505.428 84.554 489.343 84.17 470.96 C 84.746 451.237 90.697 432.855 102.022 416.004 C 113.539 398.962 128.319 386.898 146.363 379.813 L 133.118 311.835 C 103.558 336.346 79.564 361.813 60.944 388.621 C 42.325 415.238 32.727 444.152 31.96 475.364 C 32.343 489.343 35.223 502.938 40.597 515.96 C 45.972 529.172 54.034 541.044 64.783 551.959 C 86.474 573.597 114.691 584.895 149.05 586.043 C 160.759 585.277 173.236 583.171 186.673 579.724 L 156.92 429.791 Z  M 170.741 427.876 L 200.685 575.129 C 230.246 563.257 245.026 537.406 245.026 497.96 C 243.298 484.747 239.459 472.875 232.933 462.343 C 226.598 451.62 218.153 443.195 207.403 437.067 C 196.654 430.94 184.561 427.876 170.741 427.876 Z  M 131.39 228.73 C 137.725 224.901 145.019 218.199 152.889 208.816 C 160.759 199.625 168.437 188.71 175.731 176.455 C 183.217 164.008 189.168 151.37 193.583 138.541 C 197.998 125.902 200.109 113.839 200.109 102.733 C 200.109 97.945 199.725 93.158 198.765 88.946 C 197.998 82.052 195.886 76.691 192.239 73.052 C 188.592 69.606 183.985 67.691 178.227 67.691 C 166.71 67.691 156.344 74.776 147.131 88.946 C 140.028 101.201 134.078 115.754 129.855 132.221 C 125.44 148.881 122.945 165.349 122.561 182.008 C 123.52 200.965 126.592 216.475 131.39 228.73 Z  M 119.298 239.837 C 110.66 208.816 105.861 177.221 104.901 145.051 C 105.093 124.371 107.205 105.03 111.236 87.031 C 115.075 69.031 120.641 53.521 127.935 40.117 C 135.038 26.713 143.291 16.564 152.505 9.67 C 160.759 3.543 166.71 0.288 169.973 0.288 C 172.468 0.288 174.58 1.245 176.499 2.968 C 178.419 4.692 180.914 7.564 183.985 11.394 C 206.827 43.755 218.345 82.818 218.345 128.392 C 218.345 150.03 215.465 171.093 209.707 192.157 C 204.14 213.029 195.886 232.943 184.945 251.517 C 173.812 270.283 160.759 286.559 145.595 300.538 L 161.143 375.983 C 169.589 375.026 175.347 374.26 178.611 374.26 C 193.199 374.26 206.252 377.324 218.345 383.451 C 230.437 389.579 240.803 397.813 249.249 408.344 C 257.695 418.685 264.221 430.557 268.828 443.961 C 273.243 457.365 275.738 471.343 275.738 485.896 C 275.738 508.492 269.788 529.172 257.887 547.746 C 245.986 566.32 228.134 579.916 204.14 588.724 C 205.676 598.107 208.363 611.703 212.394 629.128 C 216.233 646.745 219.112 660.723 221.032 671.063 C 222.951 681.403 223.719 691.361 223.719 701.127 C 223.719 716.254 220.072 729.658 212.778 741.53 C 205.292 753.402 195.31 762.594 182.642 769.104 C 170.165 775.615 156.344 778.87 141.372 778.87 C 120.257 778.87 101.83 772.934 86.09 761.253 C 70.35 749.381 61.904 733.488 61.136 713.19 C 61.712 704.19 63.824 695.765 67.663 687.723 C 71.502 679.68 76.684 673.17 83.403 668.191 C 89.929 663.021 97.799 660.34 106.821 659.766 C 114.307 659.766 121.409 661.872 128.127 665.893 C 134.654 670.106 140.028 675.659 144.059 682.744 C 147.898 689.829 150.01 697.68 150.01 706.105 C 150.01 717.403 146.171 726.977 138.493 734.828 C 130.815 742.679 121.025 746.7 109.316 746.7 L 104.901 746.7 C 112.387 758.189 124.672 764.125 141.756 764.125 C 150.394 764.125 159.223 762.211 168.053 758.764 C 177.075 755.126 184.561 750.338 190.895 744.211 C 197.23 738.083 201.453 731.573 203.18 724.679 C 206.444 716.828 207.979 705.914 207.979 692.318 C 207.979 683.127 207.019 673.936 205.292 664.744 C 203.564 655.744 200.877 643.681 197.23 628.745 C 193.583 614 190.895 602.511 189.36 594.66 C 177.843 597.533 165.942 599.064 153.465 599.064 C 132.542 599.064 112.771 594.852 94.152 586.235 C 75.533 577.618 59.217 565.746 45.012 550.427 C 31 535.108 20.059 517.874 12.189 498.343 C 4.511 479.003 0.48 458.705 0.288 437.642 C 1.055 418.11 4.702 399.345 11.613 381.728 C 18.523 363.92 27.353 347.069 38.294 331.367 C 49.235 315.665 60.56 301.304 72.269 288.474 C 84.17 275.836 99.718 259.56 119.298 239.837 Z " fill-rule="evenodd" fill="rgb(19,21,22)" vector-effect="non-scaling-stroke" stroke-width="0.575" stroke="rgb(19,21,22)" stroke-linejoin="miter" stroke-linecap="butt" stroke-miterlimit="4"/></g></svg>