<?xml version="1.0" standalone="no"?><!-- Generator: Gravit.io --><svg xmlns="http://www.w3.org/2000/svg" xmlns:xlink="http://www.w3.org/1999/xlink" style="isolation:isolate" viewBox="0 0 705 693" width="705" height="693"><defs><clipPath id="_clipPath_Nf1efnbqJxt1FTcFJXBcCj5v89YnYlja"><rect width="705" height="693"/></clipPath></defs><g clip-path="url(#_clipPath_Nf1efnbqJxt1FTcFJXBcCj5v89YnYlja)"><rect x="202" y="50" width="503" height="643" transform="matrix(1,0,0,1,0,0)" fill="rgb(255,255,255)"/><clipPath id="_clipPath_xd47PqwAC4VGyh1cxhkv0Kno06e6kI6U"><rect x="202" y="50" width="503" height="643" transform="matrix(1,0,0,1,0,0)" fill="rgb(255,255,255)"/></clipPath><g clip-path="url(#_clipPath_xd47PqwAC4VGyh1cxhkv0Kno06e6kI6U)"><rect x="231" y="207" width="445" height="58" transform="matrix(1,0,0,1,0,0)" fill="rgb(235,235,235)"/><clipPath id="_clipPath_iY5EVH6zuy0kPbDMbKcljOLgGbWWKRHg"><rect x="231" y="207" width="445" height="58" transform="matrix(1,0,0,1,0,0)" fill="rgb(235,235,235)"/></clipPath><g clip-path="url(#_clipPath_iY5EVH6zuy0kPbDMbKcljOLgGbWWKRHg)"><rect x="269" y="207" width="22" height="58" transform="matrix(1,0,0,1,0,0)" fill="rgb(200,117,255)"/><rect x="231" y="207" width="38" height="58" transform="matrix(1,0,0,1,0,0)" fill="rgb(74,134,232)"/></g><g transform="matrix(0.674,0,0,0.674,247,179)"><text transform="matrix(1,0,0,1,0,21.377)" style="font-family:&quot;Open Sans&quot;;font-weight:400;font-size:20px;font-style:normal;fill:#000000;stroke:none;">bpm</text></g><g transform="matrix(1,0,0,1,431.25,134)"><text transform="matrix(1,0,0,1,0,21.377)" style="font-family:&quot;Open Sans&quot;;font-weight:400;font-size:20px;font-style:normal;fill:#000000;stroke:none;">Artist</text></g><g transform="matrix(1,0,0,1,436.25,97)"><text transform="matrix(1,0,0,1,0,21.377)" style="font-family:&quot;Open Sans&quot;;font-weight:400;font-size:20px;font-style:normal;fill:#000000;stroke:none;">Title</text></g></g><rect x="0" y="50" width="202" height="643" transform="matrix(1,0,0,1,0,0)" fill="rgb(176,169,169)"/><clipPath id="_clipPath_8FkOoGEwyKbZjEeEfswq28UupD7GToWY"><rect x="0" y="50" width="202" height="643" transform="matrix(1,0,0,1,0,0)" fill="rgb(176,169,169)"/></clipPath><g clip-path="url(#_clipPath_8FkOoGEwyKbZjEeEfswq28UupD7GToWY)"><path d=" M 174.665 332.837 L 150 346.5 L 174.665 360.163 L 198.331 346.5 L 174.665 332.837 Z " fill="rgb(83,83,83)"/><g transform="matrix(1,0,0,1,6,504.109)"><text transform="matrix(1,0,0,1,0,21.377)" style="font-family:&quot;Open Sans&quot;;font-weight:400;font-size:20px;font-style:normal;fill:#000000;stroke:none;">Help</text></g><line x1="6" y1="502.109" x2="189" y2="502.109" vector-effect="non-scaling-stroke" stroke-width="1" stroke="rgb(0,0,0)" stroke-linejoin="miter" stroke-linecap="square" stroke-miterlimit="3"/><g transform="matrix(1,0,0,1,6,392.564)"><text transform="matrix(1,0,0,1,0,21.377)" style="font-family:&quot;Open Sans&quot;;font-weight:700;font-size:20px;font-style:normal;fill:#000000;stroke:none;">Page Options   </text><text transform="matrix(1,0,0,1,15.586,48.613)" style="font-family:&quot;Open Sans&quot;;font-weight:400;font-size:20px;font-style:normal;fill:#000000;stroke:none;">-new   </text><text transform="matrix(1,0,0,1,15.586,75.85)" style="font-family:&quot;Open Sans&quot;;font-weight:400;font-size:20px;font-style:normal;fill:#000000;stroke:none;">-delete</text></g><line x1="6" y1="391" x2="189" y2="391" vector-effect="non-scaling-stroke" stroke-width="1" stroke="rgb(0,0,0)" stroke-linejoin="miter" stroke-linecap="square" stroke-miterlimit="3"/><g transform="matrix(1,0,0,1,8,262.555)"><text transform="matrix(1,0,0,1,0,21.377)" style="font-family:&quot;Open Sans&quot;;font-weight:700;font-size:20px;font-style:normal;fill:#000000;stroke:none;">Song Options   </text><text transform="matrix(1,0,0,1,15.586,48.613)" style="font-family:&quot;Open Sans&quot;;font-weight:400;font-size:20px;font-style:normal;fill:#000000;stroke:none;">-artist   </text><text transform="matrix(1,0,0,1,15.586,75.85)" style="font-family:&quot;Open Sans&quot;;font-weight:400;font-size:20px;font-style:normal;fill:#000000;stroke:none;">-title   </text><text transform="matrix(1,0,0,1,15.586,103.086)" style="font-family:&quot;Open Sans&quot;;font-weight:400;font-size:20px;font-style:normal;fill:#000000;stroke:none;">-bpm</text></g><line x1="6" y1="263" x2="189" y2="263" vector-effect="non-scaling-stroke" stroke-width="1" stroke="rgb(0,0,0)" stroke-linejoin="miter" stroke-linecap="square" stroke-miterlimit="3"/><g transform="matrix(1,0,0,1,6,59)"><text transform="matrix(1,0,0,1,0.859,21.377)" style="font-family:&quot;Open Sans&quot;;font-weight:700;font-size:20px;font-style:normal;fill:#000000;stroke:none;">Note Options</text><text transform="matrix(1,0,0,1,0.859,48.613)" style="font-family:&quot;Open Sans&quot;;font-weight:400;font-size:20px;font-style:normal;fill:#000000;stroke:none;">Add note   </text><text transform="matrix(1,0,0,1,16.445,75.85)" style="font-family:&quot;Open Sans&quot;;font-weight:400;font-size:20px;font-style:normal;fill:#000000;stroke:none;">-whole   </text><text transform="matrix(1,0,0,1,16.445,103.086)" style="font-family:&quot;Open Sans&quot;;font-weight:400;font-size:20px;font-style:normal;fill:#000000;stroke:none;">-half   </text><text transform="matrix(1,0,0,1,16.445,130.322)" style="font-family:&quot;Open Sans&quot;;font-weight:400;font-size:20px;font-style:normal;fill:#000000;stroke:none;">-quarter   </text><text transform="matrix(1,0,0,1,16.445,157.559)" style="font-family:&quot;Open Sans&quot;;font-weight:400;font-size:20px;font-style:normal;fill:#000000;stroke:none;">etc...</text><text transform="matrix(1,0,0,1,0.859,184.795)" style="font-family:&quot;Open Sans&quot;;font-weight:400;font-size:20px;font-style:normal;fill:#000000;stroke:none;">Delete Note</text></g></g><rect x="0" y="0" width="705" height="50" transform="matrix(1,0,0,1,0,0)" fill="rgb(173,173,247)"/><clipPath id="_clipPath_q8femI50lxc4smoZMV2m6F4r7W4498S9"><rect x="0" y="0" width="705" height="50" transform="matrix(1,0,0,1,0,0)" fill="rgb(173,173,247)"/></clipPath><g clip-path="url(#_clipPath_q8femI50lxc4smoZMV2m6F4r7W4498S9)"><rect x="533" y="11.382" width="149" height="27.236" transform="matrix(1,0,0,1,0,0)" fill="rgb(235,235,235)"/><clipPath id="_clipPath_xApHUZom4pckLq6aGh6TAIjqORzwFsHv"><rect x="533" y="11.382" width="149" height="27.236" transform="matrix(1,0,0,1,0,0)" fill="rgb(235,235,235)"/></clipPath><g clip-path="url(#_clipPath_xApHUZom4pckLq6aGh6TAIjqORzwFsHv)"><g transform="matrix(1,0,0,1,533,11.382)"><text transform="matrix(1,0,0,1,0,21.377)" style="font-family:&quot;Open Sans&quot;;font-weight:400;font-size:20px;font-style:normal;fill:#000000;stroke:none;">Login/Signin/up</text></g></g><g transform="matrix(1,0,0,1,32,11.382)"><text transform="matrix(1,0,0,1,0,21.377)" style="font-family:&quot;Open Sans&quot;;font-weight:400;font-size:20px;font-style:normal;fill:#000000;stroke:none;">Ekko</text></g></g></g></svg>